# xmcd
#
# Track frame offsets: 
#        150
#        20722
#        38242
#        65883
#        86185
#        106208
#        124685
#        145986
#        167386
#        186848
#
# Disc length: 2760 seconds
#
# Revision: 0
# Processed by: cddbd v1.5.2PL0 Copyright (c) Steve Scherf et al.
# Submitted via: ExactAudioCopy v1.0b3
#
DISCID=8c0ac60a
DTITLE=Yen Khoa - Xa Tim Ha Mua
DYEAR=2001
DGENRE=
TTITLE0=Xa tim ha mua
TTITLE1=Loi to tinh de thuong
TTITLE2=Ke den sau
TTITLE3=Bai tango tinh yeu
TTITLE4=Doi khong nhu la mo
TTITLE5=Thuong ca mua ha
TTITLE6=Cay cau dua
TTITLE7=Neu phai yeu anh
TTITLE8=Nang Son Ca
TTITLE9=Ca dao em va toi
EXTD=
EXTT0=
EXTT1=
EXTT2=
EXTT3=
EXTT4=
EXTT5=
EXTT6=
EXTT7=
EXTT8=
EXTT9=
PLAYORDER=
